<?xml version="1.0"?>
<svg width="64" height="64" xmlns="http://www.w3.org/2000/svg" xmlns:svg="http://www.w3.org/2000/svg" class="iconify iconify--emojione-monotone" preserveAspectRatio="xMidYMid meet">
 <g class="layer">
  <title>Layer 1</title>
  <path d="m60.33,42.84l-6.49,-12.13l5.84,0l0,-16.04c0,-15.39 -26.53,-15.39 -26.53,0l0,16.04l5.67,0l-5.87,10.44l-7.28,-11.83c-0.51,-0.8 -1.14,-1.25 -1.77,-1.25l-4.21,0l0,-0.22c3.23,-1.27 6.88,-4.06 7.57,-7.66c1.21,-0.22 2.48,-1 2.48,-3.32c0,-2.13 -0.84,-2.74 -1.53,-2.88c-0.08,-8.38 -2.23,-11.93 -11.74,-11.99c-9.6,-0.11 -12.15,3.6 -12.25,12.08c-0.61,0.26 -1.22,0.97 -1.22,2.79c0,2.32 1.27,3.1 2.48,3.32c0.68,3.54 4.22,6.3 7.41,7.6l0,0.28s-3.73,0 -4.22,0c-1.03,0.01 -1.84,0.72 -2.06,1.83l-2.77,13.54l0,0l-0.1,0.47l0,0.04l-0.1,0.47l0.01,0c-0.21,1.23 -0.14,1.99 0.2,2.48c0.36,0.51 0.93,0.6 1.23,0.65c0.18,0.03 0.34,0.05 0.51,0.05c1.08,0 1.7,-0.86 2.14,-2.97l0.98,-3.71l0.13,2.02l0,19.06l6.51,0l0,-2.74l-0.02,-0.02l0.01,-0.8c0.02,-8.45 0.53,-10.17 0.73,-10.92l0.44,0c0.21,0.78 0.72,2.51 0.74,10.91l0,0.81l-0.02,0.02l0,2.74l6.51,0l0,-19.07l0.4,-6.91l5.82,7.48c0.1,1.98 1.54,3.02 2.98,3.02l0,0c0.76,0 1.46,-0.27 1.98,-0.75c0.55,-0.52 0.85,-1.23 0.88,-2.06l4.41,-6.95a53.82,53.82 0 0 1 -0.57,3.62c-1.24,6.32 -3.5,10.28 -3.52,10.32l-0.43,0.75l5.07,0l0.01,7.04c-0.43,0.14 -0.83,0.35 -1.11,0.66l-0.14,0.14l0,2.71l6.63,0l0,-2.71l-0.13,-0.14c-0.28,-0.31 -0.68,-0.52 -1.1,-0.66l0,-7.04l3.18,0l0.01,7.03c-0.42,0.15 -0.83,0.36 -1.11,0.67l-0.13,0.14l0,2.71l6.63,0l0,-2.71l-0.14,-0.14c-0.25,-0.28 -0.63,-0.5 -1.1,-0.66l0,-7.04l4.88,0l-0.44,-0.75c-0.02,-0.04 -2.28,-4 -3.52,-10.32a48.17,48.17 0 0 1 -0.45,-2.74l3.52,6.04l0.19,0.33l0.01,0.02l0.22,0.37l0.01,-0.01c0.87,1.41 1.58,2.01 2.38,2.01c0.33,0 0.61,-0.1 0.87,-0.21c0.28,-0.12 0.81,-0.34 1,-0.91c0.19,-0.56 -0.01,-1.32 -0.6,-2.44m-53.92,-23.15l-0.06,-0.39l-0.39,-0.04c-1.36,-0.12 -1.97,-0.86 -1.97,-2.39c0,-1.29 0.31,-1.95 0.92,-1.95l0.08,0.01c0.1,0.52 0.2,0.83 0.31,1c0.33,0.66 0.95,0.96 1.03,0.99l0.81,0.36l-0.12,-0.88c-0.01,-0.01 -0.14,-0.96 -0.09,-2.21c0.29,-4.3 0.59,-4.67 1.42,-4.67c0.42,0 1.01,0.12 1.74,0.26c1.44,0.28 3.42,0.67 6.28,0.67c2.86,0 4.83,-0.39 6.28,-0.67c0.73,-0.14 1.32,-0.26 1.73,-0.26c0.84,0 1.13,0.37 1.43,4.66a13.68,13.68 0 0 1 -0.09,2.22l-0.13,0.88l0.82,-0.36c0.07,-0.03 0.7,-0.33 1,-0.95c0.13,-0.2 0.23,-0.52 0.33,-1.04c0.69,-0.04 1.01,0.59 1.01,1.94c0,1.53 -0.61,2.27 -1.98,2.39l-0.39,0.04l-0.05,0.39c-0.63,4.85 -7.31,7.93 -9.96,7.93c-2.65,0 -9.33,-3.08 -9.96,-7.93m9.96,8.91c0.69,0 1.52,-0.15 2.4,-0.42l0,0.39c0,0.54 -1.06,1.14 -2.48,1.14c-1.42,0 -2.48,-0.6 -2.48,-1.14l0,-0.44c0.94,0.3 1.83,0.47 2.56,0.47m-10.78,18c-0.11,0.02 -0.22,-0.01 -0.34,-0.03c-0.34,-0.06 -0.49,-0.12 -0.57,-0.23c-0.12,-0.18 -0.22,-0.64 -0.04,-1.76l1.9,0.31l0.09,0.02c-0.41,1.69 -0.84,1.69 -1.04,1.69m8.75,14.4l-4.49,0l0,-1.34c0.42,-0.33 1.28,-0.54 2.25,-0.54c0.96,0 1.82,0.21 2.24,0.54l0,1.34m8.39,0l-4.49,0l0,-1.34c0.42,-0.33 1.29,-0.54 2.25,-0.54s1.82,0.21 2.24,0.54l0,1.34m7.87,-18.31l-7.31,-9.39l-0.53,9.12l-12.94,0l-0.5,-7.72l-2.45,9.23l-0.73,-0.12l-1.31,-0.21l2.77,-13.5c0.15,-0.75 0.66,-1.03 1.08,-1.03c0.53,0 4.21,0 4.21,0c0.36,0.95 1.73,1.64 3.4,1.64c1.68,0 3.04,-0.68 3.4,-1.64l4.21,0c0.26,0 0.62,0.31 0.92,0.78l7.43,12.08l-1.65,0.76m3.63,2.35a1.87,1.87 0 0 1 -1.28,0.48l0,0c-0.92,0 -1.85,-0.59 -1.98,-1.9l0.51,-0.24l1.46,-0.67l0.34,0.2l1.52,0.91c-0.05,0.5 -0.25,0.92 -0.57,1.22m10.92,14.66l0,1.3l-4.62,0l0,-1.3c0.44,-0.32 1.32,-0.53 2.31,-0.53c0.99,0 1.88,0.21 2.31,0.53m-3.38,-8.25l2.14,0l0,6.8c-0.46,-0.06 -0.86,-0.08 -1.07,-0.08s-0.6,0.02 -1.06,0.08l-0.01,-6.8m10.72,8.25l0,1.3l-4.61,0l0,-1.3c0.43,-0.32 1.32,-0.53 2.3,-0.53s1.88,0.21 2.31,0.53m-3.37,-8.25l2.13,0l0,6.8a7.42,7.42 0 0 0 -2.13,0l0,-6.8m0.28,-23.43l-0.51,0l0,0.84c-0.01,0.54 -1.07,1.13 -2.48,1.13c-1.42,0 -2.48,-0.6 -2.48,-1.14l0,-0.83l-0.5,0c-3.93,-0.47 -6.54,-2.14 -7.16,-6.81c-1.82,-0.12 -2.36,-1.29 -2.36,-2.72c0,-3.73 2.81,-1.84 2.81,-1.84s5.77,-5.71 17.15,-5.71c0,0 2.44,0.44 2.24,5.71c0,0 2.8,-1.89 2.8,1.84c0,1.43 -0.54,2.6 -2.35,2.72c-0.62,4.67 -3.23,6.34 -7.16,6.81m10.58,16.94c-0.04,0.1 -0.15,0.19 -0.44,0.31c-0.19,0.08 -0.34,0.13 -0.48,0.13c-0.37,0 -0.85,-0.47 -1.45,-1.4l1.8,-0.76c0.61,1.12 0.62,1.56 0.57,1.72" fill="#7f3a3f" id="svg_4"/>
 </g>
</svg>